# xmcd
#
# Track frame offsets: 
#        150
#        12954
#        28404
#        45544
#        60043
#        75024
#        89212
#        102973
#        116597
#        132736
#        142492
#        153824
#        170820
#        188099
#        202395
#        214165
#        238955
#        251804
#        269568
#        291717
#        308728
#        327646
#
# Disc length: 4770 seconds
#
# Revision: 0
# Processed by: cddbd v1.5.2PL0 Copyright (c) Steve Scherf et al.
# Submitted via: ExactAudioCopy v0.95b3
#
DISCID=6012a016
DTITLE=Elvis Costello  - The First Ten Years (The Best Of)  FLAC
DYEAR=1900
DGENRE=
TTITLE0=(The Angels Wanna Wear My) Red Shoes
TTITLE1=Alison
TTITLE2=Watching the Detectives
TTITLE3=(I Don't Want to Go to) Chelsea
TTITLE4=Pump It Up
TTITLE5=Radio, Radio
TTITLE6=Accidents Will Happen
TTITLE7=Oliver's Army
TTITLE8=(What's So Funny 'Bout) Peace, Love and Understanding
TTITLE9=I Can't Stand up For Falling Down
TTITLE10=High Fidelity
TTITLE11=Clubland
TTITLE12=New Lace Sleeves
TTITLE13=Good Year For the Roses
TTITLE14=Beyond Belief
TTITLE15=Man Out of Time
TTITLE16=Almost Blue
TTITLE17=Everyday I Write the Book
TTITLE18=Shipbuilding
TTITLE19=Brilliant Mistake
TTITLE20=Indoor Fireworks
TTITLE21=I Want You
EXTD=
EXTT0=
EXTT1=
EXTT2=
EXTT3=
EXTT4=
EXTT5=
EXTT6=
EXTT7=
EXTT8=
EXTT9=
EXTT10=
EXTT11=
EXTT12=
EXTT13=
EXTT14=
EXTT15=
EXTT16=
EXTT17=
EXTT18=
EXTT19=
EXTT20=
EXTT21=
PLAYORDER=
